<svg width="24" height="20" viewBox="0 0 24 20" fill="none" xmlns="http://www.w3.org/2000/svg">
<path d="M15 7.50001L9 12.5M15 12.5H14.991M9.009 7.50001H9M7.832 17.79L7.313 17.215C6.858 16.7092 5.89 16.75 5.506 17.29C4.966 18.05 3.5 17.7475 3.5 16.8767V3.12334C3.5 2.25251 4.966 1.95001 5.506 2.70918C5.89 3.25001 6.858 3.29084 7.313 2.78501L7.832 2.21001C8.485 1.48501 9.849 1.48501 10.502 2.21001L10.583 2.30084C11.276 3.06918 12.723 3.06918 13.417 2.30084L13.498 2.21001C14.151 1.48501 15.515 1.48501 16.168 2.21001L16.687 2.78501C17.142 3.29084 18.11 3.25001 18.494 2.71001C19.034 1.95084 20.5 2.25251 20.5 3.12334V16.8767C20.5 17.7475 19.034 18.05 18.494 17.2908C18.11 16.75 17.142 16.7092 16.687 17.215L16.169 17.79C15.515 18.515 14.151 18.515 13.499 17.79L13.417 17.6992C12.724 16.9308 11.277 16.9308 10.583 17.6992L10.502 17.79C9.849 18.515 8.485 18.515 7.832 17.79Z" stroke="#667080" stroke-width="1.5" stroke-linecap="round" stroke-linejoin="round"/>
</svg>
