<svg width="20" height="24" viewBox="0 0 20 24" fill="none" xmlns="http://www.w3.org/2000/svg">
<path fill-rule="evenodd" clip-rule="evenodd" d="M0.666992 0.75L7.7068 0.753826C10.6523 0.753826 13.0381 1.74071 13.0381 4.50214C13.0381 4.77808 13.0137 5.05355 12.9652 5.32572L12.667 7L14.4529 6.7204C17.3582 6.26554 18.7734 8.10481 19.2585 10.8285C19.307 11.1007 19.3325 11.3762 19.3325 11.6521L19.3337 23.25H0.666992V0.75ZM5.33435 4.3439C4.5577 4.3439 3.9281 4.9735 3.9281 5.75015C3.9281 6.5268 4.5577 7.1564 5.33435 7.1564H8.66768C9.44433 7.1564 10.0739 6.5268 10.0739 5.75015C10.0739 4.9735 9.44433 4.3439 8.66768 4.3439H5.33435ZM5.33435 9.3439C4.5577 9.3439 3.9281 9.9735 3.9281 10.7502C3.9281 11.5268 4.5577 12.1564 5.33435 12.1564H14.6677C15.4443 12.1564 16.0739 11.5268 16.0739 10.7502C16.0739 9.9735 15.4443 9.3439 14.6677 9.3439H5.33435ZM5.33435 13.0939C4.5577 13.0939 3.9281 13.7235 3.9281 14.5002C3.9281 15.2768 4.5577 15.9064 5.33435 15.9064H14.6677C15.4443 15.9064 16.0739 15.2768 16.0739 14.5002C16.0739 13.7235 15.4443 13.0939 14.6677 13.0939H5.33435ZM5.33435 16.8439C4.5577 16.8439 3.9281 17.4735 3.9281 18.2502C3.9281 19.0268 4.5577 19.6564 5.33435 19.6564H14.6677C15.4443 19.6564 16.0739 19.0268 16.0739 18.2502C16.0739 17.4735 15.4443 16.8439 14.6677 16.8439H5.33435Z" fill="#4F5663"/>
</svg>
